# xmcd CD database file
#
# Track frame offsets:
#	150
#	15578
#	47737
#	59168
#	67442
#	85336
#	103286
#	129780
#	147778
#	161543
#	179864
#	193724
#
# Disc length: 2733 seconds
#
# Revision: 4
# Processed by: cddbd v1.5.2PL0 Copyright (c) Steve Scherf et al.
# Submitted via: CDex 1.88
#
DISCID=b70aab0c
DTITLE=Joan Manuel Serrat - Antologia 1968 - 1974 Disco 2
DYEAR=1900
DGENRE=Chanson
TTITLE0=Mediterraneo
TTITLE1=Romance de Curro el Palmo
TTITLE2=Tu nombre me sabe a hierba
TTITLE3=Aquellas pequenias cosas
TTITLE4=Poco antes de que den las 10
TTITLE5=De carton piedra
TTITLE6=Nanas de la cebolla
TTITLE7=Cancion infantil... para despertar a una paloma morena de tres primaveras
TTITLE8=Poema de amor
TTITLE9=Penelope
TTITLE10=Lucia
TTITLE11=Fiesta
EXTD=
EXTT0=
EXTT1=
EXTT2=
EXTT3=
EXTT4=
EXTT5=
EXTT6=
EXTT7=
EXTT8=
EXTT9=
EXTT10=
EXTT11=
PLAYORDER=
